<mxfile host="Electron" agent="Mozilla/5.0 (Windows NT 10.0; Win64; x64) AppleWebKit/537.36 (KHTML, like Gecko) draw.io/26.2.2 Chrome/134.0.6998.178 Electron/35.1.2 Safari/537.36" version="26.2.2">
  <diagram name="Page-1" id="yby-WBq46DlQIXsK4EJs">
    <mxGraphModel dx="1748" dy="1162" grid="1" gridSize="10" guides="1" tooltips="1" connect="1" arrows="1" fold="1" page="1" pageScale="1" pageWidth="850" pageHeight="1100" math="0" shadow="0">
      <root>
        <mxCell id="0" />
        <mxCell id="1" parent="0" />
        <mxCell id="wCTFtr7vqHa1N5YQb0h_-1" value="Laporan dan Statistik" style="swimlane;childLayout=stackLayout;resizeParent=1;resizeParentMax=0;startSize=20;html=1;" parent="1" vertex="1">
          <mxGeometry x="40" y="40" width="670" height="1000" as="geometry" />
        </mxCell>
        <mxCell id="wCTFtr7vqHa1N5YQb0h_-2" value="Admin / manajer" style="swimlane;startSize=20;html=1;" parent="wCTFtr7vqHa1N5YQb0h_-1" vertex="1">
          <mxGeometry y="20" width="330" height="980" as="geometry" />
        </mxCell>
        <mxCell id="wCTFtr7vqHa1N5YQb0h_-36" style="edgeStyle=orthogonalEdgeStyle;rounded=0;orthogonalLoop=1;jettySize=auto;html=1;exitX=0.5;exitY=1;exitDx=0;exitDy=0;" parent="wCTFtr7vqHa1N5YQb0h_-2" source="wCTFtr7vqHa1N5YQb0h_-18" edge="1">
          <mxGeometry relative="1" as="geometry">
            <mxPoint x="155" y="390" as="targetPoint" />
          </mxGeometry>
        </mxCell>
        <mxCell id="wCTFtr7vqHa1N5YQb0h_-18" value="Pilih jenis laporan" style="rounded=1;whiteSpace=wrap;html=1;" parent="wCTFtr7vqHa1N5YQb0h_-2" vertex="1">
          <mxGeometry x="102.19" y="330" width="105.62" height="27.5" as="geometry" />
        </mxCell>
        <mxCell id="wCTFtr7vqHa1N5YQb0h_-20" value="" style="endArrow=none;html=1;rounded=0;strokeWidth=3;" parent="wCTFtr7vqHa1N5YQb0h_-2" edge="1">
          <mxGeometry width="50" height="50" relative="1" as="geometry">
            <mxPoint x="28.4" y="391" as="sourcePoint" />
            <mxPoint x="298.4" y="391" as="targetPoint" />
          </mxGeometry>
        </mxCell>
        <mxCell id="wCTFtr7vqHa1N5YQb0h_-21" style="rounded=0;orthogonalLoop=1;jettySize=auto;html=1;exitX=0.5;exitY=1;exitDx=0;exitDy=0;" parent="wCTFtr7vqHa1N5YQb0h_-2" edge="1">
          <mxGeometry relative="1" as="geometry">
            <mxPoint x="108.39999999999999" y="501" as="targetPoint" />
            <mxPoint x="54.4" y="461" as="sourcePoint" />
          </mxGeometry>
        </mxCell>
        <mxCell id="wCTFtr7vqHa1N5YQb0h_-22" style="rounded=0;orthogonalLoop=1;jettySize=auto;html=1;exitX=0.5;exitY=1;exitDx=0;exitDy=0;" parent="wCTFtr7vqHa1N5YQb0h_-2" source="wCTFtr7vqHa1N5YQb0h_-23" edge="1">
          <mxGeometry relative="1" as="geometry">
            <mxPoint x="148.39999999999998" y="501" as="targetPoint" />
          </mxGeometry>
        </mxCell>
        <mxCell id="wCTFtr7vqHa1N5YQb0h_-23" value="Transaksi" style="rounded=1;whiteSpace=wrap;html=1;" parent="wCTFtr7vqHa1N5YQb0h_-2" vertex="1">
          <mxGeometry x="96.99999999999999" y="441" width="65" height="20" as="geometry" />
        </mxCell>
        <mxCell id="wCTFtr7vqHa1N5YQb0h_-24" style="rounded=0;orthogonalLoop=1;jettySize=auto;html=1;exitX=0.5;exitY=1;exitDx=0;exitDy=0;" parent="wCTFtr7vqHa1N5YQb0h_-2" source="wCTFtr7vqHa1N5YQb0h_-25" edge="1">
          <mxGeometry relative="1" as="geometry">
            <mxPoint x="178.39999999999998" y="501" as="targetPoint" />
          </mxGeometry>
        </mxCell>
        <mxCell id="wCTFtr7vqHa1N5YQb0h_-25" value="Obat baru" style="rounded=1;whiteSpace=wrap;html=1;" parent="wCTFtr7vqHa1N5YQb0h_-2" vertex="1">
          <mxGeometry x="172" y="441" width="56.01" height="20" as="geometry" />
        </mxCell>
        <mxCell id="wCTFtr7vqHa1N5YQb0h_-26" style="rounded=0;orthogonalLoop=1;jettySize=auto;html=1;exitX=0.5;exitY=1;exitDx=0;exitDy=0;" parent="wCTFtr7vqHa1N5YQb0h_-2" source="wCTFtr7vqHa1N5YQb0h_-27" edge="1">
          <mxGeometry relative="1" as="geometry">
            <mxPoint x="208.39999999999998" y="501" as="targetPoint" />
          </mxGeometry>
        </mxCell>
        <mxCell id="wCTFtr7vqHa1N5YQb0h_-27" value="Kadaluarsa" style="rounded=1;whiteSpace=wrap;html=1;" parent="wCTFtr7vqHa1N5YQb0h_-2" vertex="1">
          <mxGeometry x="238.01" y="441" width="63.99" height="20" as="geometry" />
        </mxCell>
        <mxCell id="wCTFtr7vqHa1N5YQb0h_-28" value="" style="endArrow=classic;html=1;rounded=0;" parent="wCTFtr7vqHa1N5YQb0h_-2" edge="1">
          <mxGeometry width="50" height="50" relative="1" as="geometry">
            <mxPoint x="129.17999999999998" y="391" as="sourcePoint" />
            <mxPoint x="129.17999999999998" y="441" as="targetPoint" />
          </mxGeometry>
        </mxCell>
        <mxCell id="wCTFtr7vqHa1N5YQb0h_-29" value="" style="endArrow=classic;html=1;rounded=0;" parent="wCTFtr7vqHa1N5YQb0h_-2" edge="1">
          <mxGeometry width="50" height="50" relative="1" as="geometry">
            <mxPoint x="199.51" y="391" as="sourcePoint" />
            <mxPoint x="199.51" y="441" as="targetPoint" />
          </mxGeometry>
        </mxCell>
        <mxCell id="wCTFtr7vqHa1N5YQb0h_-30" value="" style="endArrow=classic;html=1;rounded=0;" parent="wCTFtr7vqHa1N5YQb0h_-2" edge="1">
          <mxGeometry width="50" height="50" relative="1" as="geometry">
            <mxPoint x="261.67999999999995" y="391" as="sourcePoint" />
            <mxPoint x="261.67999999999995" y="441" as="targetPoint" />
          </mxGeometry>
        </mxCell>
        <mxCell id="wCTFtr7vqHa1N5YQb0h_-31" value="" style="endArrow=none;html=1;rounded=0;strokeWidth=3;" parent="wCTFtr7vqHa1N5YQb0h_-2" edge="1">
          <mxGeometry width="50" height="50" relative="1" as="geometry">
            <mxPoint x="28.4" y="501" as="sourcePoint" />
            <mxPoint x="298.4" y="501" as="targetPoint" />
          </mxGeometry>
        </mxCell>
        <mxCell id="wCTFtr7vqHa1N5YQb0h_-54" style="edgeStyle=orthogonalEdgeStyle;rounded=0;orthogonalLoop=1;jettySize=auto;html=1;exitX=0.5;exitY=1;exitDx=0;exitDy=0;" parent="wCTFtr7vqHa1N5YQb0h_-2" source="wCTFtr7vqHa1N5YQb0h_-32" edge="1">
          <mxGeometry relative="1" as="geometry">
            <mxPoint x="163" y="590" as="targetPoint" />
          </mxGeometry>
        </mxCell>
        <mxCell id="wCTFtr7vqHa1N5YQb0h_-32" value="pilih rentang waktu" style="rounded=1;whiteSpace=wrap;html=1;" parent="wCTFtr7vqHa1N5YQb0h_-2" vertex="1">
          <mxGeometry x="103.39999999999999" y="531" width="120" height="30" as="geometry" />
        </mxCell>
        <mxCell id="wCTFtr7vqHa1N5YQb0h_-33" value="" style="endArrow=classic;html=1;rounded=0;" parent="wCTFtr7vqHa1N5YQb0h_-2" edge="1">
          <mxGeometry width="50" height="50" relative="1" as="geometry">
            <mxPoint x="54.4" y="391" as="sourcePoint" />
            <mxPoint x="54.4" y="441" as="targetPoint" />
          </mxGeometry>
        </mxCell>
        <mxCell id="wCTFtr7vqHa1N5YQb0h_-34" value="" style="endArrow=classic;html=1;rounded=0;" parent="wCTFtr7vqHa1N5YQb0h_-2" target="wCTFtr7vqHa1N5YQb0h_-32" edge="1">
          <mxGeometry width="50" height="50" relative="1" as="geometry">
            <mxPoint x="163.39999999999998" y="501" as="sourcePoint" />
            <mxPoint x="178.39999999999998" y="441" as="targetPoint" />
          </mxGeometry>
        </mxCell>
        <mxCell id="wCTFtr7vqHa1N5YQb0h_-35" value="Stok akhir" style="rounded=1;whiteSpace=wrap;html=1;" parent="wCTFtr7vqHa1N5YQb0h_-2" vertex="1">
          <mxGeometry x="28.009999999999998" y="441" width="60" height="20" as="geometry" />
        </mxCell>
        <mxCell id="wCTFtr7vqHa1N5YQb0h_-38" value="" style="endArrow=none;html=1;rounded=0;strokeWidth=3;" parent="wCTFtr7vqHa1N5YQb0h_-2" edge="1">
          <mxGeometry width="50" height="50" relative="1" as="geometry">
            <mxPoint x="28.39" y="590" as="sourcePoint" />
            <mxPoint x="298.39" y="590" as="targetPoint" />
          </mxGeometry>
        </mxCell>
        <mxCell id="wCTFtr7vqHa1N5YQb0h_-39" style="rounded=0;orthogonalLoop=1;jettySize=auto;html=1;exitX=0.5;exitY=1;exitDx=0;exitDy=0;" parent="wCTFtr7vqHa1N5YQb0h_-2" edge="1">
          <mxGeometry relative="1" as="geometry">
            <mxPoint x="108.38999999999997" y="700" as="targetPoint" />
            <mxPoint x="54.39000000000001" y="660" as="sourcePoint" />
          </mxGeometry>
        </mxCell>
        <mxCell id="wCTFtr7vqHa1N5YQb0h_-40" style="rounded=0;orthogonalLoop=1;jettySize=auto;html=1;exitX=0.5;exitY=1;exitDx=0;exitDy=0;" parent="wCTFtr7vqHa1N5YQb0h_-2" source="wCTFtr7vqHa1N5YQb0h_-41" edge="1">
          <mxGeometry relative="1" as="geometry">
            <mxPoint x="148.39" y="700" as="targetPoint" />
          </mxGeometry>
        </mxCell>
        <mxCell id="wCTFtr7vqHa1N5YQb0h_-41" value="tahunan" style="rounded=1;whiteSpace=wrap;html=1;" parent="wCTFtr7vqHa1N5YQb0h_-2" vertex="1">
          <mxGeometry x="96.98999999999998" y="640" width="65" height="20" as="geometry" />
        </mxCell>
        <mxCell id="wCTFtr7vqHa1N5YQb0h_-42" style="rounded=0;orthogonalLoop=1;jettySize=auto;html=1;exitX=0.5;exitY=1;exitDx=0;exitDy=0;" parent="wCTFtr7vqHa1N5YQb0h_-2" source="wCTFtr7vqHa1N5YQb0h_-43" edge="1">
          <mxGeometry relative="1" as="geometry">
            <mxPoint x="178.39" y="700" as="targetPoint" />
          </mxGeometry>
        </mxCell>
        <mxCell id="wCTFtr7vqHa1N5YQb0h_-43" value="Harian" style="rounded=1;whiteSpace=wrap;html=1;" parent="wCTFtr7vqHa1N5YQb0h_-2" vertex="1">
          <mxGeometry x="171.99" y="640" width="56.01" height="20" as="geometry" />
        </mxCell>
        <mxCell id="wCTFtr7vqHa1N5YQb0h_-44" style="rounded=0;orthogonalLoop=1;jettySize=auto;html=1;exitX=0.5;exitY=1;exitDx=0;exitDy=0;" parent="wCTFtr7vqHa1N5YQb0h_-2" source="wCTFtr7vqHa1N5YQb0h_-45" edge="1">
          <mxGeometry relative="1" as="geometry">
            <mxPoint x="208.39" y="700" as="targetPoint" />
          </mxGeometry>
        </mxCell>
        <mxCell id="wCTFtr7vqHa1N5YQb0h_-45" value="Custom" style="rounded=1;whiteSpace=wrap;html=1;" parent="wCTFtr7vqHa1N5YQb0h_-2" vertex="1">
          <mxGeometry x="238" y="640" width="63.99" height="20" as="geometry" />
        </mxCell>
        <mxCell id="wCTFtr7vqHa1N5YQb0h_-46" value="" style="endArrow=classic;html=1;rounded=0;" parent="wCTFtr7vqHa1N5YQb0h_-2" edge="1">
          <mxGeometry width="50" height="50" relative="1" as="geometry">
            <mxPoint x="129.17" y="590" as="sourcePoint" />
            <mxPoint x="129.17" y="640" as="targetPoint" />
          </mxGeometry>
        </mxCell>
        <mxCell id="wCTFtr7vqHa1N5YQb0h_-47" value="" style="endArrow=classic;html=1;rounded=0;" parent="wCTFtr7vqHa1N5YQb0h_-2" edge="1">
          <mxGeometry width="50" height="50" relative="1" as="geometry">
            <mxPoint x="199.5" y="590" as="sourcePoint" />
            <mxPoint x="199.5" y="640" as="targetPoint" />
          </mxGeometry>
        </mxCell>
        <mxCell id="wCTFtr7vqHa1N5YQb0h_-48" value="" style="endArrow=classic;html=1;rounded=0;" parent="wCTFtr7vqHa1N5YQb0h_-2" edge="1">
          <mxGeometry width="50" height="50" relative="1" as="geometry">
            <mxPoint x="261.66999999999996" y="590" as="sourcePoint" />
            <mxPoint x="261.66999999999996" y="640" as="targetPoint" />
          </mxGeometry>
        </mxCell>
        <mxCell id="wCTFtr7vqHa1N5YQb0h_-49" value="" style="endArrow=none;html=1;rounded=0;strokeWidth=3;" parent="wCTFtr7vqHa1N5YQb0h_-2" edge="1">
          <mxGeometry width="50" height="50" relative="1" as="geometry">
            <mxPoint x="28.39" y="700" as="sourcePoint" />
            <mxPoint x="298.39" y="700" as="targetPoint" />
          </mxGeometry>
        </mxCell>
        <mxCell id="wCTFtr7vqHa1N5YQb0h_-50" value="Klik &quot;Generate&quot;" style="rounded=1;whiteSpace=wrap;html=1;" parent="wCTFtr7vqHa1N5YQb0h_-2" vertex="1">
          <mxGeometry x="103.38999999999997" y="730" width="120" height="30" as="geometry" />
        </mxCell>
        <mxCell id="wCTFtr7vqHa1N5YQb0h_-51" value="" style="endArrow=classic;html=1;rounded=0;" parent="wCTFtr7vqHa1N5YQb0h_-2" edge="1">
          <mxGeometry width="50" height="50" relative="1" as="geometry">
            <mxPoint x="54.39000000000001" y="590" as="sourcePoint" />
            <mxPoint x="54.39000000000001" y="640" as="targetPoint" />
          </mxGeometry>
        </mxCell>
        <mxCell id="wCTFtr7vqHa1N5YQb0h_-52" value="" style="endArrow=classic;html=1;rounded=0;" parent="wCTFtr7vqHa1N5YQb0h_-2" target="wCTFtr7vqHa1N5YQb0h_-50" edge="1">
          <mxGeometry width="50" height="50" relative="1" as="geometry">
            <mxPoint x="163.39" y="700" as="sourcePoint" />
            <mxPoint x="178.39" y="640" as="targetPoint" />
          </mxGeometry>
        </mxCell>
        <mxCell id="wCTFtr7vqHa1N5YQb0h_-53" value="Bulanan" style="rounded=1;whiteSpace=wrap;html=1;" parent="wCTFtr7vqHa1N5YQb0h_-2" vertex="1">
          <mxGeometry x="28" y="640" width="60" height="20" as="geometry" />
        </mxCell>
        <mxCell id="wCTFtr7vqHa1N5YQb0h_-65" value="Logout" style="rounded=1;whiteSpace=wrap;html=1;" parent="wCTFtr7vqHa1N5YQb0h_-2" vertex="1">
          <mxGeometry x="125" y="875" width="60" height="20" as="geometry" />
        </mxCell>
        <mxCell id="wCTFtr7vqHa1N5YQb0h_-3" value="system" style="swimlane;startSize=20;html=1;" parent="wCTFtr7vqHa1N5YQb0h_-1" vertex="1">
          <mxGeometry x="330" y="20" width="340" height="980" as="geometry" />
        </mxCell>
        <mxCell id="wCTFtr7vqHa1N5YQb0h_-11" value="Memverifikasi level akses" style="rounded=1;whiteSpace=wrap;html=1;" parent="wCTFtr7vqHa1N5YQb0h_-3" vertex="1">
          <mxGeometry x="118.75" y="70" width="102.5" height="40" as="geometry" />
        </mxCell>
        <mxCell id="wCTFtr7vqHa1N5YQb0h_-12" style="edgeStyle=orthogonalEdgeStyle;rounded=0;orthogonalLoop=1;jettySize=auto;html=1;exitX=0.5;exitY=1;exitDx=0;exitDy=0;entryX=0.5;entryY=0;entryDx=0;entryDy=0;" parent="wCTFtr7vqHa1N5YQb0h_-3" source="wCTFtr7vqHa1N5YQb0h_-13" target="wCTFtr7vqHa1N5YQb0h_-14" edge="1">
          <mxGeometry relative="1" as="geometry" />
        </mxCell>
        <mxCell id="wCTFtr7vqHa1N5YQb0h_-13" value="Level akses diverifikasi sebagai Manajer" style="rounded=1;whiteSpace=wrap;html=1;" parent="wCTFtr7vqHa1N5YQb0h_-3" vertex="1">
          <mxGeometry x="119.37" y="190" width="101.25" height="50" as="geometry" />
        </mxCell>
        <mxCell id="wCTFtr7vqHa1N5YQb0h_-14" value="Menampilkan Dashboard" style="rounded=1;whiteSpace=wrap;html=1;" parent="wCTFtr7vqHa1N5YQb0h_-3" vertex="1">
          <mxGeometry x="119.37" y="260" width="101.25" height="35" as="geometry" />
        </mxCell>
        <mxCell id="wCTFtr7vqHa1N5YQb0h_-15" style="edgeStyle=orthogonalEdgeStyle;rounded=0;orthogonalLoop=1;jettySize=auto;html=1;exitX=0.5;exitY=1;exitDx=0;exitDy=0;exitPerimeter=0;entryX=0.5;entryY=0;entryDx=0;entryDy=0;" parent="wCTFtr7vqHa1N5YQb0h_-3" source="wCTFtr7vqHa1N5YQb0h_-16" target="wCTFtr7vqHa1N5YQb0h_-13" edge="1">
          <mxGeometry relative="1" as="geometry" />
        </mxCell>
        <mxCell id="wCTFtr7vqHa1N5YQb0h_-16" value="" style="verticalLabelPosition=bottom;verticalAlign=top;html=1;shape=mxgraph.flowchart.collate;" parent="wCTFtr7vqHa1N5YQb0h_-3" vertex="1">
          <mxGeometry x="155" y="130" width="30" height="30" as="geometry" />
        </mxCell>
        <mxCell id="wCTFtr7vqHa1N5YQb0h_-17" style="edgeStyle=orthogonalEdgeStyle;rounded=0;orthogonalLoop=1;jettySize=auto;html=1;exitX=0.5;exitY=1;exitDx=0;exitDy=0;entryX=0.5;entryY=0;entryDx=0;entryDy=0;entryPerimeter=0;" parent="wCTFtr7vqHa1N5YQb0h_-3" source="wCTFtr7vqHa1N5YQb0h_-11" target="wCTFtr7vqHa1N5YQb0h_-16" edge="1">
          <mxGeometry relative="1" as="geometry" />
        </mxCell>
        <mxCell id="wCTFtr7vqHa1N5YQb0h_-58" value="" style="edgeStyle=orthogonalEdgeStyle;rounded=0;orthogonalLoop=1;jettySize=auto;html=1;" parent="wCTFtr7vqHa1N5YQb0h_-3" source="wCTFtr7vqHa1N5YQb0h_-55" target="wCTFtr7vqHa1N5YQb0h_-57" edge="1">
          <mxGeometry relative="1" as="geometry" />
        </mxCell>
        <mxCell id="wCTFtr7vqHa1N5YQb0h_-55" value="" style="shape=collate;whiteSpace=wrap;html=1;" parent="wCTFtr7vqHa1N5YQb0h_-3" vertex="1">
          <mxGeometry x="150" y="490" width="40" height="40" as="geometry" />
        </mxCell>
        <mxCell id="wCTFtr7vqHa1N5YQb0h_-61" style="edgeStyle=orthogonalEdgeStyle;rounded=0;orthogonalLoop=1;jettySize=auto;html=1;exitX=0.5;exitY=1;exitDx=0;exitDy=0;" parent="wCTFtr7vqHa1N5YQb0h_-3" source="wCTFtr7vqHa1N5YQb0h_-57" target="wCTFtr7vqHa1N5YQb0h_-59" edge="1">
          <mxGeometry relative="1" as="geometry" />
        </mxCell>
        <mxCell id="wCTFtr7vqHa1N5YQb0h_-62" value="&lt;span style=&quot;font-size: 12px;&quot;&gt;Download laporan?&lt;/span&gt;" style="edgeLabel;html=1;align=center;verticalAlign=middle;resizable=0;points=[];labelBackgroundColor=default;" parent="wCTFtr7vqHa1N5YQb0h_-61" vertex="1" connectable="0">
          <mxGeometry x="-0.2167" relative="1" as="geometry">
            <mxPoint as="offset" />
          </mxGeometry>
        </mxCell>
        <mxCell id="wCTFtr7vqHa1N5YQb0h_-57" value="System menampilkan laporan dalam bentuk tabel dan grafik" style="rounded=1;whiteSpace=wrap;html=1;" parent="wCTFtr7vqHa1N5YQb0h_-3" vertex="1">
          <mxGeometry x="110" y="550" width="119.99" height="60" as="geometry" />
        </mxCell>
        <mxCell id="wCTFtr7vqHa1N5YQb0h_-68" style="edgeStyle=orthogonalEdgeStyle;rounded=0;orthogonalLoop=1;jettySize=auto;html=1;exitX=1;exitY=0.5;exitDx=0;exitDy=0;" parent="wCTFtr7vqHa1N5YQb0h_-3" source="wCTFtr7vqHa1N5YQb0h_-59" target="wCTFtr7vqHa1N5YQb0h_-67" edge="1">
          <mxGeometry relative="1" as="geometry" />
        </mxCell>
        <mxCell id="wCTFtr7vqHa1N5YQb0h_-59" value="" style="rhombus;whiteSpace=wrap;html=1;" parent="wCTFtr7vqHa1N5YQb0h_-3" vertex="1">
          <mxGeometry x="144.99" y="676.67" width="50.01" height="50" as="geometry" />
        </mxCell>
        <mxCell id="wCTFtr7vqHa1N5YQb0h_-70" style="edgeStyle=orthogonalEdgeStyle;rounded=0;orthogonalLoop=1;jettySize=auto;html=1;exitX=0.5;exitY=1;exitDx=0;exitDy=0;" parent="wCTFtr7vqHa1N5YQb0h_-3" source="wCTFtr7vqHa1N5YQb0h_-67" edge="1">
          <mxGeometry relative="1" as="geometry">
            <mxPoint x="252.33333333333326" y="786.67" as="targetPoint" />
          </mxGeometry>
        </mxCell>
        <mxCell id="wCTFtr7vqHa1N5YQb0h_-67" value="Unduh sebagai" style="rounded=1;whiteSpace=wrap;html=1;" parent="wCTFtr7vqHa1N5YQb0h_-3" vertex="1">
          <mxGeometry x="210" y="746.67" width="85" height="20" as="geometry" />
        </mxCell>
        <mxCell id="wCTFtr7vqHa1N5YQb0h_-69" value="" style="endArrow=none;html=1;rounded=0;strokeWidth=3;" parent="wCTFtr7vqHa1N5YQb0h_-3" edge="1">
          <mxGeometry width="50" height="50" relative="1" as="geometry">
            <mxPoint x="190" y="786.67" as="sourcePoint" />
            <mxPoint x="310" y="786.67" as="targetPoint" />
          </mxGeometry>
        </mxCell>
        <mxCell id="wCTFtr7vqHa1N5YQb0h_-71" value="PDF" style="rounded=1;whiteSpace=wrap;html=1;" parent="wCTFtr7vqHa1N5YQb0h_-3" vertex="1">
          <mxGeometry x="185" y="816.67" width="55" height="20" as="geometry" />
        </mxCell>
        <mxCell id="wCTFtr7vqHa1N5YQb0h_-72" value="Excel" style="rounded=1;whiteSpace=wrap;html=1;" parent="wCTFtr7vqHa1N5YQb0h_-3" vertex="1">
          <mxGeometry x="260" y="816.67" width="53.99" height="20" as="geometry" />
        </mxCell>
        <mxCell id="wCTFtr7vqHa1N5YQb0h_-74" value="" style="endArrow=classic;html=1;rounded=0;entryX=0.5;entryY=0;entryDx=0;entryDy=0;" parent="wCTFtr7vqHa1N5YQb0h_-3" edge="1">
          <mxGeometry width="50" height="50" relative="1" as="geometry">
            <mxPoint x="286.83000000000004" y="786.67" as="sourcePoint" />
            <mxPoint x="286.83000000000004" y="816.67" as="targetPoint" />
          </mxGeometry>
        </mxCell>
        <mxCell id="wCTFtr7vqHa1N5YQb0h_-75" value="" style="endArrow=none;html=1;rounded=0;strokeWidth=3;" parent="wCTFtr7vqHa1N5YQb0h_-3" edge="1">
          <mxGeometry width="50" height="50" relative="1" as="geometry">
            <mxPoint x="220.62" y="860" as="sourcePoint" />
            <mxPoint x="280.62" y="860" as="targetPoint" />
          </mxGeometry>
        </mxCell>
        <mxCell id="wCTFtr7vqHa1N5YQb0h_-80" value="" style="endArrow=classic;html=1;rounded=0;" parent="wCTFtr7vqHa1N5YQb0h_-3" edge="1">
          <mxGeometry width="50" height="50" relative="1" as="geometry">
            <mxPoint x="287" y="836.67" as="sourcePoint" />
            <mxPoint x="260" y="860" as="targetPoint" />
          </mxGeometry>
        </mxCell>
        <mxCell id="wCTFtr7vqHa1N5YQb0h_-81" value="Proses" style="text;html=1;align=center;verticalAlign=middle;resizable=0;points=[];autosize=1;strokeColor=none;fillColor=none;rotation=-90;fontSize=15;fontStyle=1" parent="wCTFtr7vqHa1N5YQb0h_-3" vertex="1">
          <mxGeometry x="15" y="600" width="70" height="30" as="geometry" />
        </mxCell>
        <mxCell id="wCTFtr7vqHa1N5YQb0h_-84" value="Menampilkan konfrimasi download berhasil" style="rounded=1;whiteSpace=wrap;html=1;" parent="wCTFtr7vqHa1N5YQb0h_-3" vertex="1">
          <mxGeometry x="50" y="860" width="120" height="50" as="geometry" />
        </mxCell>
        <mxCell id="wCTFtr7vqHa1N5YQb0h_-85" value="" style="endArrow=classic;html=1;rounded=0;" parent="wCTFtr7vqHa1N5YQb0h_-3" target="wCTFtr7vqHa1N5YQb0h_-84" edge="1">
          <mxGeometry width="50" height="50" relative="1" as="geometry">
            <mxPoint x="250" y="860" as="sourcePoint" />
            <mxPoint x="280" y="750" as="targetPoint" />
            <Array as="points">
              <mxPoint x="250" y="885" />
            </Array>
          </mxGeometry>
        </mxCell>
        <mxCell id="wCTFtr7vqHa1N5YQb0h_-88" value="iya" style="text;html=1;align=center;verticalAlign=middle;resizable=0;points=[];autosize=1;strokeColor=none;fillColor=none;" parent="wCTFtr7vqHa1N5YQb0h_-3" vertex="1">
          <mxGeometry x="210" y="676.67" width="40" height="30" as="geometry" />
        </mxCell>
        <mxCell id="wCTFtr7vqHa1N5YQb0h_-56" style="edgeStyle=orthogonalEdgeStyle;rounded=0;orthogonalLoop=1;jettySize=auto;html=1;entryX=0.5;entryY=0;entryDx=0;entryDy=0;" parent="wCTFtr7vqHa1N5YQb0h_-1" source="wCTFtr7vqHa1N5YQb0h_-50" target="wCTFtr7vqHa1N5YQb0h_-55" edge="1">
          <mxGeometry relative="1" as="geometry">
            <Array as="points">
              <mxPoint x="390" y="765" />
              <mxPoint x="390" y="490" />
              <mxPoint x="500" y="490" />
            </Array>
          </mxGeometry>
        </mxCell>
        <mxCell id="wCTFtr7vqHa1N5YQb0h_-66" style="edgeStyle=orthogonalEdgeStyle;rounded=0;orthogonalLoop=1;jettySize=auto;html=1;entryX=0.5;entryY=0;entryDx=0;entryDy=0;" parent="wCTFtr7vqHa1N5YQb0h_-1" source="wCTFtr7vqHa1N5YQb0h_-59" target="wCTFtr7vqHa1N5YQb0h_-65" edge="1">
          <mxGeometry relative="1" as="geometry">
            <Array as="points">
              <mxPoint x="430" y="722" />
              <mxPoint x="430" y="800" />
              <mxPoint x="155" y="800" />
            </Array>
          </mxGeometry>
        </mxCell>
        <mxCell id="wCTFtr7vqHa1N5YQb0h_-86" style="edgeStyle=orthogonalEdgeStyle;rounded=0;orthogonalLoop=1;jettySize=auto;html=1;exitX=0;exitY=0.5;exitDx=0;exitDy=0;entryX=1;entryY=0.5;entryDx=0;entryDy=0;" parent="wCTFtr7vqHa1N5YQb0h_-1" source="wCTFtr7vqHa1N5YQb0h_-84" target="wCTFtr7vqHa1N5YQb0h_-65" edge="1">
          <mxGeometry relative="1" as="geometry" />
        </mxCell>
        <mxCell id="wCTFtr7vqHa1N5YQb0h_-5" style="edgeStyle=orthogonalEdgeStyle;rounded=0;orthogonalLoop=1;jettySize=auto;html=1;" parent="1" source="wCTFtr7vqHa1N5YQb0h_-9" target="wCTFtr7vqHa1N5YQb0h_-11" edge="1">
          <mxGeometry relative="1" as="geometry" />
        </mxCell>
        <mxCell id="wCTFtr7vqHa1N5YQb0h_-6" value="" style="edgeStyle=orthogonalEdgeStyle;rounded=0;orthogonalLoop=1;jettySize=auto;html=1;" parent="1" source="wCTFtr7vqHa1N5YQb0h_-14" target="wCTFtr7vqHa1N5YQb0h_-10" edge="1">
          <mxGeometry relative="1" as="geometry" />
        </mxCell>
        <mxCell id="wCTFtr7vqHa1N5YQb0h_-7" style="edgeStyle=orthogonalEdgeStyle;rounded=0;orthogonalLoop=1;jettySize=auto;html=1;exitX=0.5;exitY=1;exitDx=0;exitDy=0;entryX=0.5;entryY=0;entryDx=0;entryDy=0;" parent="1" source="wCTFtr7vqHa1N5YQb0h_-8" target="wCTFtr7vqHa1N5YQb0h_-9" edge="1">
          <mxGeometry relative="1" as="geometry" />
        </mxCell>
        <mxCell id="wCTFtr7vqHa1N5YQb0h_-8" value="" style="ellipse;whiteSpace=wrap;html=1;aspect=fixed;" parent="1" vertex="1">
          <mxGeometry x="182.19" y="90" width="30" height="30" as="geometry" />
        </mxCell>
        <mxCell id="wCTFtr7vqHa1N5YQb0h_-9" value="Login" style="rounded=1;whiteSpace=wrap;html=1;" parent="1" vertex="1">
          <mxGeometry x="167.19" y="140" width="60" height="20" as="geometry" />
        </mxCell>
        <mxCell id="wCTFtr7vqHa1N5YQb0h_-19" value="" style="edgeStyle=orthogonalEdgeStyle;rounded=0;orthogonalLoop=1;jettySize=auto;html=1;" parent="1" source="wCTFtr7vqHa1N5YQb0h_-10" target="wCTFtr7vqHa1N5YQb0h_-18" edge="1">
          <mxGeometry relative="1" as="geometry" />
        </mxCell>
        <mxCell id="wCTFtr7vqHa1N5YQb0h_-10" value="mengakses menu&amp;nbsp;&lt;br&gt;&quot;Saporan dan Statistik&quot;" style="rounded=1;whiteSpace=wrap;html=1;" parent="1" vertex="1">
          <mxGeometry x="142.19" y="312.5" width="105.62" height="50" as="geometry" />
        </mxCell>
        <mxCell id="wCTFtr7vqHa1N5YQb0h_-63" value="" style="ellipse;whiteSpace=wrap;html=1;aspect=fixed;fillStyle=solid;" parent="1" vertex="1">
          <mxGeometry x="180" y="990" width="30" height="30" as="geometry" />
        </mxCell>
        <mxCell id="wCTFtr7vqHa1N5YQb0h_-64" style="edgeStyle=orthogonalEdgeStyle;rounded=0;orthogonalLoop=1;jettySize=auto;html=1;exitX=0.5;exitY=1;exitDx=0;exitDy=0;entryX=0.5;entryY=0;entryDx=0;entryDy=0;" parent="1" source="wCTFtr7vqHa1N5YQb0h_-65" target="wCTFtr7vqHa1N5YQb0h_-63" edge="1">
          <mxGeometry relative="1" as="geometry" />
        </mxCell>
        <mxCell id="wCTFtr7vqHa1N5YQb0h_-73" value="" style="endArrow=classic;html=1;rounded=0;entryX=0.5;entryY=0;entryDx=0;entryDy=0;" parent="1" target="wCTFtr7vqHa1N5YQb0h_-71" edge="1">
          <mxGeometry width="50" height="50" relative="1" as="geometry">
            <mxPoint x="583" y="846.67" as="sourcePoint" />
            <mxPoint x="640" y="836.67" as="targetPoint" />
          </mxGeometry>
        </mxCell>
        <mxCell id="wCTFtr7vqHa1N5YQb0h_-79" value="" style="endArrow=classic;html=1;rounded=0;" parent="1" edge="1">
          <mxGeometry width="50" height="50" relative="1" as="geometry">
            <mxPoint x="583" y="896.67" as="sourcePoint" />
            <mxPoint x="610" y="920" as="targetPoint" />
          </mxGeometry>
        </mxCell>
        <mxCell id="wCTFtr7vqHa1N5YQb0h_-87" value="tidak" style="text;html=1;align=center;verticalAlign=middle;resizable=0;points=[];autosize=1;strokeColor=none;fillColor=none;" parent="1" vertex="1">
          <mxGeometry x="465" y="738" width="50" height="30" as="geometry" />
        </mxCell>
        <mxCell id="f9QZBy0ZInT2e0u1fm2e-2" value="C" style="whiteSpace=wrap;html=1;aspect=fixed;" vertex="1" parent="1">
          <mxGeometry x="830" y="70" width="230" height="230" as="geometry" />
        </mxCell>
        <mxCell id="f9QZBy0ZInT2e0u1fm2e-3" style="rounded=0;orthogonalLoop=1;jettySize=auto;html=1;exitX=0.5;exitY=0.5;exitDx=0;exitDy=0;exitPerimeter=0;" edge="1" parent="1" source="f9QZBy0ZInT2e0u1fm2e-5" target="f9QZBy0ZInT2e0u1fm2e-8">
          <mxGeometry relative="1" as="geometry" />
        </mxCell>
        <mxCell id="f9QZBy0ZInT2e0u1fm2e-4" style="rounded=0;orthogonalLoop=1;jettySize=auto;html=1;exitX=0.5;exitY=0.5;exitDx=0;exitDy=0;exitPerimeter=0;" edge="1" parent="1" source="f9QZBy0ZInT2e0u1fm2e-5" target="f9QZBy0ZInT2e0u1fm2e-9">
          <mxGeometry relative="1" as="geometry" />
        </mxCell>
        <mxCell id="f9QZBy0ZInT2e0u1fm2e-5" value="Manajer" style="shape=umlActor;verticalLabelPosition=bottom;verticalAlign=top;html=1;outlineConnect=0;" vertex="1" parent="1">
          <mxGeometry x="1080" y="168.75" width="20" height="37.5" as="geometry" />
        </mxCell>
        <mxCell id="f9QZBy0ZInT2e0u1fm2e-6" style="rounded=0;orthogonalLoop=1;jettySize=auto;html=1;exitX=0.5;exitY=0.5;exitDx=0;exitDy=0;exitPerimeter=0;" edge="1" parent="1" source="f9QZBy0ZInT2e0u1fm2e-7" target="f9QZBy0ZInT2e0u1fm2e-9">
          <mxGeometry relative="1" as="geometry" />
        </mxCell>
        <mxCell id="f9QZBy0ZInT2e0u1fm2e-15" style="rounded=0;orthogonalLoop=1;jettySize=auto;html=1;exitX=0.5;exitY=0.5;exitDx=0;exitDy=0;exitPerimeter=0;entryX=0;entryY=0.5;entryDx=0;entryDy=0;" edge="1" parent="1" source="f9QZBy0ZInT2e0u1fm2e-7" target="f9QZBy0ZInT2e0u1fm2e-13">
          <mxGeometry relative="1" as="geometry" />
        </mxCell>
        <mxCell id="f9QZBy0ZInT2e0u1fm2e-7" value="Admin" style="shape=umlActor;verticalLabelPosition=bottom;verticalAlign=top;html=1;outlineConnect=0;" vertex="1" parent="1">
          <mxGeometry x="790" y="167.5" width="20" height="40" as="geometry" />
        </mxCell>
        <mxCell id="f9QZBy0ZInT2e0u1fm2e-8" value="Lihat statistik" style="ellipse;whiteSpace=wrap;html=1;" vertex="1" parent="1">
          <mxGeometry x="900" y="160" width="80" height="40" as="geometry" />
        </mxCell>
        <mxCell id="f9QZBy0ZInT2e0u1fm2e-9" value="Unduh laporan" style="ellipse;whiteSpace=wrap;html=1;" vertex="1" parent="1">
          <mxGeometry x="905" y="215" width="70" height="40" as="geometry" />
        </mxCell>
        <mxCell id="f9QZBy0ZInT2e0u1fm2e-10" style="rounded=0;orthogonalLoop=1;jettySize=auto;html=1;exitX=0.5;exitY=0.5;exitDx=0;exitDy=0;exitPerimeter=0;entryX=0.009;entryY=0.63;entryDx=0;entryDy=0;entryPerimeter=0;" edge="1" parent="1" source="f9QZBy0ZInT2e0u1fm2e-7" target="f9QZBy0ZInT2e0u1fm2e-8">
          <mxGeometry relative="1" as="geometry" />
        </mxCell>
        <mxCell id="f9QZBy0ZInT2e0u1fm2e-13" value="Buat laporan" style="ellipse;whiteSpace=wrap;html=1;" vertex="1" parent="1">
          <mxGeometry x="895" y="100" width="90" height="40" as="geometry" />
        </mxCell>
        <mxCell id="f9QZBy0ZInT2e0u1fm2e-51" style="edgeStyle=orthogonalEdgeStyle;rounded=0;orthogonalLoop=1;jettySize=auto;html=1;endArrow=none;startFill=0;" edge="1" parent="1" source="f9QZBy0ZInT2e0u1fm2e-17" target="f9QZBy0ZInT2e0u1fm2e-27">
          <mxGeometry relative="1" as="geometry" />
        </mxCell>
        <mxCell id="f9QZBy0ZInT2e0u1fm2e-17" value="User" style="swimlane;fontStyle=1;align=center;verticalAlign=top;childLayout=stackLayout;horizontal=1;startSize=26;horizontalStack=0;resizeParent=1;resizeParentMax=0;resizeLast=0;collapsible=1;marginBottom=0;whiteSpace=wrap;html=1;" vertex="1" parent="1">
          <mxGeometry x="750" y="362.5" width="160" height="216" as="geometry" />
        </mxCell>
        <mxCell id="f9QZBy0ZInT2e0u1fm2e-18" value="- idUser&lt;span style=&quot;white-space: pre;&quot;&gt;&#x9;&lt;/span&gt;: int" style="text;strokeColor=none;fillColor=none;align=left;verticalAlign=top;spacingLeft=4;spacingRight=4;overflow=hidden;rotatable=0;points=[[0,0.5],[1,0.5]];portConstraint=eastwest;whiteSpace=wrap;html=1;" vertex="1" parent="f9QZBy0ZInT2e0u1fm2e-17">
          <mxGeometry y="26" width="160" height="26" as="geometry" />
        </mxCell>
        <mxCell id="f9QZBy0ZInT2e0u1fm2e-19" value="- nama&lt;span style=&quot;white-space: pre;&quot;&gt;&#x9;&lt;/span&gt;: string" style="text;strokeColor=none;fillColor=none;align=left;verticalAlign=top;spacingLeft=4;spacingRight=4;overflow=hidden;rotatable=0;points=[[0,0.5],[1,0.5]];portConstraint=eastwest;whiteSpace=wrap;html=1;" vertex="1" parent="f9QZBy0ZInT2e0u1fm2e-17">
          <mxGeometry y="52" width="160" height="26" as="geometry" />
        </mxCell>
        <mxCell id="f9QZBy0ZInT2e0u1fm2e-20" value="- username : string" style="text;strokeColor=none;fillColor=none;align=left;verticalAlign=top;spacingLeft=4;spacingRight=4;overflow=hidden;rotatable=0;points=[[0,0.5],[1,0.5]];portConstraint=eastwest;whiteSpace=wrap;html=1;" vertex="1" parent="f9QZBy0ZInT2e0u1fm2e-17">
          <mxGeometry y="78" width="160" height="26" as="geometry" />
        </mxCell>
        <mxCell id="f9QZBy0ZInT2e0u1fm2e-21" value="- password : string" style="text;strokeColor=none;fillColor=none;align=left;verticalAlign=top;spacingLeft=4;spacingRight=4;overflow=hidden;rotatable=0;points=[[0,0.5],[1,0.5]];portConstraint=eastwest;whiteSpace=wrap;html=1;" vertex="1" parent="f9QZBy0ZInT2e0u1fm2e-17">
          <mxGeometry y="104" width="160" height="26" as="geometry" />
        </mxCell>
        <mxCell id="f9QZBy0ZInT2e0u1fm2e-22" value="- role&lt;span style=&quot;white-space: pre;&quot;&gt;&#x9;&lt;/span&gt;: string" style="text;strokeColor=none;fillColor=none;align=left;verticalAlign=top;spacingLeft=4;spacingRight=4;overflow=hidden;rotatable=0;points=[[0,0.5],[1,0.5]];portConstraint=eastwest;whiteSpace=wrap;html=1;" vertex="1" parent="f9QZBy0ZInT2e0u1fm2e-17">
          <mxGeometry y="130" width="160" height="26" as="geometry" />
        </mxCell>
        <mxCell id="f9QZBy0ZInT2e0u1fm2e-23" value="" style="line;strokeWidth=1;fillColor=none;align=left;verticalAlign=middle;spacingTop=-1;spacingLeft=3;spacingRight=3;rotatable=0;labelPosition=right;points=[];portConstraint=eastwest;strokeColor=inherit;" vertex="1" parent="f9QZBy0ZInT2e0u1fm2e-17">
          <mxGeometry y="156" width="160" height="8" as="geometry" />
        </mxCell>
        <mxCell id="f9QZBy0ZInT2e0u1fm2e-24" value="+ login()" style="text;strokeColor=none;fillColor=none;align=left;verticalAlign=top;spacingLeft=4;spacingRight=4;overflow=hidden;rotatable=0;points=[[0,0.5],[1,0.5]];portConstraint=eastwest;whiteSpace=wrap;html=1;" vertex="1" parent="f9QZBy0ZInT2e0u1fm2e-17">
          <mxGeometry y="164" width="160" height="26" as="geometry" />
        </mxCell>
        <mxCell id="f9QZBy0ZInT2e0u1fm2e-25" value="+ logout()" style="text;strokeColor=none;fillColor=none;align=left;verticalAlign=top;spacingLeft=4;spacingRight=4;overflow=hidden;rotatable=0;points=[[0,0.5],[1,0.5]];portConstraint=eastwest;whiteSpace=wrap;html=1;" vertex="1" parent="f9QZBy0ZInT2e0u1fm2e-17">
          <mxGeometry y="190" width="160" height="26" as="geometry" />
        </mxCell>
        <mxCell id="f9QZBy0ZInT2e0u1fm2e-53" style="edgeStyle=orthogonalEdgeStyle;rounded=0;orthogonalLoop=1;jettySize=auto;html=1;endArrow=none;startFill=0;" edge="1" parent="1" source="f9QZBy0ZInT2e0u1fm2e-27" target="f9QZBy0ZInT2e0u1fm2e-36">
          <mxGeometry relative="1" as="geometry">
            <Array as="points">
              <mxPoint x="1110" y="758" />
            </Array>
          </mxGeometry>
        </mxCell>
        <mxCell id="f9QZBy0ZInT2e0u1fm2e-27" value="Laporan" style="swimlane;fontStyle=1;align=center;verticalAlign=top;childLayout=stackLayout;horizontal=1;startSize=26;horizontalStack=0;resizeParent=1;resizeParentMax=0;resizeLast=0;collapsible=1;marginBottom=0;whiteSpace=wrap;html=1;" vertex="1" parent="1">
          <mxGeometry x="1040" y="362.5" width="160" height="268" as="geometry" />
        </mxCell>
        <mxCell id="f9QZBy0ZInT2e0u1fm2e-28" value="- idlaporan : int" style="text;strokeColor=none;fillColor=none;align=left;verticalAlign=top;spacingLeft=4;spacingRight=4;overflow=hidden;rotatable=0;points=[[0,0.5],[1,0.5]];portConstraint=eastwest;whiteSpace=wrap;html=1;" vertex="1" parent="f9QZBy0ZInT2e0u1fm2e-27">
          <mxGeometry y="26" width="160" height="26" as="geometry" />
        </mxCell>
        <mxCell id="f9QZBy0ZInT2e0u1fm2e-29" value="- judul&lt;span style=&quot;white-space: pre;&quot;&gt;&#x9;&lt;/span&gt;: string" style="text;strokeColor=none;fillColor=none;align=left;verticalAlign=top;spacingLeft=4;spacingRight=4;overflow=hidden;rotatable=0;points=[[0,0.5],[1,0.5]];portConstraint=eastwest;whiteSpace=wrap;html=1;" vertex="1" parent="f9QZBy0ZInT2e0u1fm2e-27">
          <mxGeometry y="52" width="160" height="26" as="geometry" />
        </mxCell>
        <mxCell id="f9QZBy0ZInT2e0u1fm2e-30" value="- tgl_dibuat : date" style="text;strokeColor=none;fillColor=none;align=left;verticalAlign=top;spacingLeft=4;spacingRight=4;overflow=hidden;rotatable=0;points=[[0,0.5],[1,0.5]];portConstraint=eastwest;whiteSpace=wrap;html=1;" vertex="1" parent="f9QZBy0ZInT2e0u1fm2e-27">
          <mxGeometry y="78" width="160" height="26" as="geometry" />
        </mxCell>
        <mxCell id="f9QZBy0ZInT2e0u1fm2e-31" value="- periode&lt;span style=&quot;white-space: pre;&quot;&gt;&#x9;&lt;/span&gt;: date" style="text;strokeColor=none;fillColor=none;align=left;verticalAlign=top;spacingLeft=4;spacingRight=4;overflow=hidden;rotatable=0;points=[[0,0.5],[1,0.5]];portConstraint=eastwest;whiteSpace=wrap;html=1;" vertex="1" parent="f9QZBy0ZInT2e0u1fm2e-27">
          <mxGeometry y="104" width="160" height="26" as="geometry" />
        </mxCell>
        <mxCell id="f9QZBy0ZInT2e0u1fm2e-32" value="- kategori&lt;span style=&quot;white-space: pre;&quot;&gt;&#x9;&lt;/span&gt;: string" style="text;strokeColor=none;fillColor=none;align=left;verticalAlign=top;spacingLeft=4;spacingRight=4;overflow=hidden;rotatable=0;points=[[0,0.5],[1,0.5]];portConstraint=eastwest;whiteSpace=wrap;html=1;" vertex="1" parent="f9QZBy0ZInT2e0u1fm2e-27">
          <mxGeometry y="130" width="160" height="26" as="geometry" />
        </mxCell>
        <mxCell id="f9QZBy0ZInT2e0u1fm2e-49" value="- format&lt;span style=&quot;white-space: pre;&quot;&gt;&#x9;&lt;/span&gt;: string" style="text;strokeColor=none;fillColor=none;align=left;verticalAlign=top;spacingLeft=4;spacingRight=4;overflow=hidden;rotatable=0;points=[[0,0.5],[1,0.5]];portConstraint=eastwest;whiteSpace=wrap;html=1;" vertex="1" parent="f9QZBy0ZInT2e0u1fm2e-27">
          <mxGeometry y="156" width="160" height="26" as="geometry" />
        </mxCell>
        <mxCell id="f9QZBy0ZInT2e0u1fm2e-33" value="" style="line;strokeWidth=1;fillColor=none;align=left;verticalAlign=middle;spacingTop=-1;spacingLeft=3;spacingRight=3;rotatable=0;labelPosition=right;points=[];portConstraint=eastwest;strokeColor=inherit;" vertex="1" parent="f9QZBy0ZInT2e0u1fm2e-27">
          <mxGeometry y="182" width="160" height="8" as="geometry" />
        </mxCell>
        <mxCell id="f9QZBy0ZInT2e0u1fm2e-34" value="+ buat_laporan()" style="text;strokeColor=none;fillColor=none;align=left;verticalAlign=top;spacingLeft=4;spacingRight=4;overflow=hidden;rotatable=0;points=[[0,0.5],[1,0.5]];portConstraint=eastwest;whiteSpace=wrap;html=1;" vertex="1" parent="f9QZBy0ZInT2e0u1fm2e-27">
          <mxGeometry y="190" width="160" height="26" as="geometry" />
        </mxCell>
        <mxCell id="f9QZBy0ZInT2e0u1fm2e-50" value="+ lihat_laporan()" style="text;strokeColor=none;fillColor=none;align=left;verticalAlign=top;spacingLeft=4;spacingRight=4;overflow=hidden;rotatable=0;points=[[0,0.5],[1,0.5]];portConstraint=eastwest;whiteSpace=wrap;html=1;" vertex="1" parent="f9QZBy0ZInT2e0u1fm2e-27">
          <mxGeometry y="216" width="160" height="26" as="geometry" />
        </mxCell>
        <mxCell id="f9QZBy0ZInT2e0u1fm2e-35" value="+ unduh_laporan()" style="text;strokeColor=none;fillColor=none;align=left;verticalAlign=top;spacingLeft=4;spacingRight=4;overflow=hidden;rotatable=0;points=[[0,0.5],[1,0.5]];portConstraint=eastwest;whiteSpace=wrap;html=1;" vertex="1" parent="f9QZBy0ZInT2e0u1fm2e-27">
          <mxGeometry y="242" width="160" height="26" as="geometry" />
        </mxCell>
        <mxCell id="f9QZBy0ZInT2e0u1fm2e-36" value="Data statistik" style="swimlane;fontStyle=1;align=center;verticalAlign=top;childLayout=stackLayout;horizontal=1;startSize=26;horizontalStack=0;resizeParent=1;resizeParentMax=0;resizeLast=0;collapsible=1;marginBottom=0;whiteSpace=wrap;html=1;" vertex="1" parent="1">
          <mxGeometry x="870" y="662.5" width="160" height="190" as="geometry" />
        </mxCell>
        <mxCell id="f9QZBy0ZInT2e0u1fm2e-37" value="- idData&lt;span style=&quot;white-space: pre;&quot;&gt;&#x9;&lt;/span&gt;: int" style="text;strokeColor=none;fillColor=none;align=left;verticalAlign=top;spacingLeft=4;spacingRight=4;overflow=hidden;rotatable=0;points=[[0,0.5],[1,0.5]];portConstraint=eastwest;whiteSpace=wrap;html=1;" vertex="1" parent="f9QZBy0ZInT2e0u1fm2e-36">
          <mxGeometry y="26" width="160" height="26" as="geometry" />
        </mxCell>
        <mxCell id="f9QZBy0ZInT2e0u1fm2e-38" value="- kategori&lt;span style=&quot;white-space: pre;&quot;&gt;&#x9;&lt;/span&gt;: string" style="text;strokeColor=none;fillColor=none;align=left;verticalAlign=top;spacingLeft=4;spacingRight=4;overflow=hidden;rotatable=0;points=[[0,0.5],[1,0.5]];portConstraint=eastwest;whiteSpace=wrap;html=1;" vertex="1" parent="f9QZBy0ZInT2e0u1fm2e-36">
          <mxGeometry y="52" width="160" height="26" as="geometry" />
        </mxCell>
        <mxCell id="f9QZBy0ZInT2e0u1fm2e-39" value="- nilai&lt;span style=&quot;white-space: pre;&quot;&gt;&#x9;&lt;/span&gt;:&amp;nbsp; float" style="text;strokeColor=none;fillColor=none;align=left;verticalAlign=top;spacingLeft=4;spacingRight=4;overflow=hidden;rotatable=0;points=[[0,0.5],[1,0.5]];portConstraint=eastwest;whiteSpace=wrap;html=1;" vertex="1" parent="f9QZBy0ZInT2e0u1fm2e-36">
          <mxGeometry y="78" width="160" height="26" as="geometry" />
        </mxCell>
        <mxCell id="f9QZBy0ZInT2e0u1fm2e-40" value="- periode&lt;span style=&quot;white-space: pre;&quot;&gt;&#x9;&lt;/span&gt;: date" style="text;strokeColor=none;fillColor=none;align=left;verticalAlign=top;spacingLeft=4;spacingRight=4;overflow=hidden;rotatable=0;points=[[0,0.5],[1,0.5]];portConstraint=eastwest;whiteSpace=wrap;html=1;" vertex="1" parent="f9QZBy0ZInT2e0u1fm2e-36">
          <mxGeometry y="104" width="160" height="26" as="geometry" />
        </mxCell>
        <mxCell id="f9QZBy0ZInT2e0u1fm2e-41" value="" style="line;strokeWidth=1;fillColor=none;align=left;verticalAlign=middle;spacingTop=-1;spacingLeft=3;spacingRight=3;rotatable=0;labelPosition=right;points=[];portConstraint=eastwest;strokeColor=inherit;" vertex="1" parent="f9QZBy0ZInT2e0u1fm2e-36">
          <mxGeometry y="130" width="160" height="8" as="geometry" />
        </mxCell>
        <mxCell id="f9QZBy0ZInT2e0u1fm2e-42" value="+ ambil_data()" style="text;strokeColor=none;fillColor=none;align=left;verticalAlign=top;spacingLeft=4;spacingRight=4;overflow=hidden;rotatable=0;points=[[0,0.5],[1,0.5]];portConstraint=eastwest;whiteSpace=wrap;html=1;" vertex="1" parent="f9QZBy0ZInT2e0u1fm2e-36">
          <mxGeometry y="138" width="160" height="26" as="geometry" />
        </mxCell>
        <mxCell id="f9QZBy0ZInT2e0u1fm2e-43" value="+ olah_data()" style="text;strokeColor=none;fillColor=none;align=left;verticalAlign=top;spacingLeft=4;spacingRight=4;overflow=hidden;rotatable=0;points=[[0,0.5],[1,0.5]];portConstraint=eastwest;whiteSpace=wrap;html=1;" vertex="1" parent="f9QZBy0ZInT2e0u1fm2e-36">
          <mxGeometry y="164" width="160" height="26" as="geometry" />
        </mxCell>
        <mxCell id="f9QZBy0ZInT2e0u1fm2e-45" value="1" style="text;html=1;align=center;verticalAlign=middle;resizable=0;points=[];autosize=1;strokeColor=none;fillColor=none;" vertex="1" parent="1">
          <mxGeometry x="910" y="440" width="30" height="30" as="geometry" />
        </mxCell>
        <mxCell id="f9QZBy0ZInT2e0u1fm2e-48" value="1" style="text;html=1;align=center;verticalAlign=middle;resizable=0;points=[];autosize=1;strokeColor=none;fillColor=none;" vertex="1" parent="1">
          <mxGeometry x="1090" y="578.5" width="30" height="30" as="geometry" />
        </mxCell>
        <mxCell id="f9QZBy0ZInT2e0u1fm2e-52" value="0..*" style="text;html=1;align=center;verticalAlign=middle;resizable=0;points=[];autosize=1;strokeColor=none;fillColor=none;" vertex="1" parent="1">
          <mxGeometry x="1005" y="470" width="40" height="30" as="geometry" />
        </mxCell>
        <mxCell id="f9QZBy0ZInT2e0u1fm2e-54" value="1" style="text;html=1;align=center;verticalAlign=middle;resizable=0;points=[];autosize=1;strokeColor=none;fillColor=none;" vertex="1" parent="1">
          <mxGeometry x="1080" y="630.5" width="30" height="30" as="geometry" />
        </mxCell>
        <mxCell id="f9QZBy0ZInT2e0u1fm2e-55" value="*" style="text;html=1;align=center;verticalAlign=middle;resizable=0;points=[];autosize=1;strokeColor=none;fillColor=none;" vertex="1" parent="1">
          <mxGeometry x="1030" y="730" width="30" height="30" as="geometry" />
        </mxCell>
      </root>
    </mxGraphModel>
  </diagram>
</mxfile>
